<?xml version="1.0" standalone="no"?>
<!DOCTYPE svg PUBLIC "-//W3C//DTD SVG 20010904//EN"
 "http://www.w3.org/TR/2001/REC-SVG-20010904/DTD/svg10.dtd">
<svg version="1.0" xmlns="http://www.w3.org/2000/svg"
 width="1362.000000pt" height="1362.000000pt" viewBox="0 0 1362.000000 1362.000000"
 preserveAspectRatio="xMidYMid meet">

<g transform="translate(0.000000,1362.000000) scale(0.100000,-0.100000)"
fill="#000000" stroke="none">
<path d="M7790 12870 c-8 -4 -28 -13 -43 -19 -15 -6 -36 -25 -45 -42 -9 -17
-31 -49 -48 -70 -18 -21 -34 -53 -38 -71 -4 -22 -16 -38 -35 -49 -17 -10 -31
-28 -35 -46 -4 -16 -25 -58 -46 -94 -22 -35 -40 -72 -40 -81 0 -45 -39 -104
-93 -141 -54 -38 -55 -38 -133 -33 -146 10 -299 8 -339 -3 -53 -14 -135 -3
-158 20 -10 11 -24 19 -32 19 -8 0 -45 14 -82 31 l-66 32 -81 -13 c-45 -7
-108 -14 -140 -15 -78 -2 -96 -22 -96 -109 0 -33 -4 -66 -8 -72 -4 -6 -29 -18
-56 -25 -46 -13 -50 -17 -65 -65 -33 -99 -86 -160 -157 -181 -21 -6 -57 -17
-79 -23 -22 -7 -78 -16 -125 -20 -121 -12 -223 -37 -288 -70 -189 -97 -162
-90 -345 -90 -115 0 -186 5 -233 16 -40 9 -84 13 -108 9 -45 -7 -146 -53 -146
-67 0 -4 -19 -20 -42 -34 -24 -15 -54 -37 -68 -50 -38 -35 -117 -72 -182 -86
-44 -9 -67 -9 -105 1 -26 7 -65 15 -86 18 -29 4 -44 14 -64 42 -15 20 -40 50
-55 66 -45 47 -113 157 -147 239 l-31 75 0 269 c0 197 -4 293 -15 358 -23 130
-16 121 -96 128 -57 6 -76 13 -96 32 -50 51 -63 54 -216 60 -166 7 -175 3
-143 -62 9 -19 16 -51 16 -72 0 -46 15 -106 39 -152 10 -19 26 -61 36 -93 17
-52 23 -58 55 -67 19 -5 51 -9 71 -8 53 2 79 -17 79 -55 0 -18 -4 -37 -9 -43
-5 -5 -11 -17 -13 -27 -2 -12 -25 -28 -63 -44 -73 -30 -96 -51 -142 -125 -19
-32 -39 -58 -44 -58 -5 0 -26 -15 -46 -33 -41 -36 -103 -67 -132 -67 -31 0
-90 -29 -101 -50 -6 -11 -27 -31 -46 -44 -20 -13 -47 -40 -60 -60 -14 -20 -41
-43 -60 -51 -35 -14 -37 -14 -67 11 -26 22 -38 25 -74 21 -24 -2 -60 -16 -81
-31 -21 -14 -48 -26 -61 -26 -33 0 -88 27 -153 77 -31 24 -63 43 -70 43 -8 0
-23 7 -34 15 -10 8 -26 15 -35 15 -21 0 -51 63 -73 150 -30 117 -90 144 -155
70 -33 -37 -42 -42 -106 -51 -38 -6 -95 -15 -125 -21 -30 -6 -138 -13 -240
-17 -212 -7 -245 -17 -256 -79 -13 -66 36 -113 113 -110 48 1 101 -25 113 -58
15 -39 12 -80 -7 -102 -22 -25 -111 -52 -173 -52 -58 0 -126 -49 -115 -84 3
-12 7 -50 8 -86 3 -78 7 -84 58 -111 22 -11 43 -28 46 -37 10 -26 54 -91 83
-122 48 -51 72 -279 36 -347 -17 -34 -35 -178 -35 -278 0 -33 -4 -72 -10 -88
-6 -15 -16 -89 -22 -165 -6 -75 -17 -155 -25 -177 -8 -23 -14 -57 -14 -78 0
-20 -9 -55 -21 -77 -24 -46 -18 -44 -191 -40 -108 2 -108 2 -143 -29 -51 -45
-138 -80 -255 -102 -36 -7 -73 -20 -83 -28 -10 -9 -32 -20 -50 -26 -17 -5 -38
-23 -47 -39 -9 -17 -36 -40 -60 -53 -25 -13 -48 -30 -53 -39 -4 -8 -30 -25
-56 -39 -48 -24 -48 -24 -54 -84 -4 -33 -16 -77 -27 -98 -11 -21 -20 -49 -20
-63 0 -14 -7 -46 -15 -72 -9 -32 -12 -70 -8 -118 l6 -70 -41 -39 c-24 -23 -54
-41 -76 -45 -45 -9 -56 -29 -56 -109 0 -43 -7 -79 -20 -108 -27 -59 -25 -80 9
-118 16 -17 36 -58 45 -90 9 -33 24 -65 33 -72 8 -8 27 -31 40 -52 14 -22 37
-43 54 -49 53 -18 129 -148 153 -260 5 -22 12 -28 34 -28 15 0 33 5 39 11 8 8
24 5 58 -10 26 -12 53 -21 60 -21 16 0 71 -62 80 -89 3 -11 22 -30 41 -41 30
-19 43 -21 107 -15 99 10 141 30 222 112 66 66 112 93 158 93 17 0 19 -5 15
-38 -3 -21 0 -72 6 -113 6 -41 10 -94 9 -119 -1 -25 3 -61 9 -80 7 -19 11 -45
10 -58 -3 -33 14 -60 51 -82 39 -24 71 -25 128 -4 24 9 75 17 112 19 38 1 72
7 76 13 3 6 19 17 34 25 24 13 35 11 109 -14 46 -16 100 -29 121 -29 44 0 92
22 107 49 13 25 88 76 124 85 14 3 36 18 48 31 12 14 29 25 38 25 9 0 31 16
50 35 19 19 39 35 45 35 7 0 20 9 30 20 10 11 30 20 44 20 19 0 44 18 91 66
77 79 127 104 240 120 47 6 120 24 163 39 87 31 114 27 154 -24 19 -24 22 -44
27 -171 14 -338 16 -362 45 -406 14 -23 31 -49 36 -58 6 -9 23 -18 39 -19 40
-3 52 39 30 107 -8 27 -16 90 -17 145 -2 87 1 101 26 151 21 41 43 66 87 98
l60 42 143 -5 c78 -3 167 -12 197 -20 30 -8 65 -15 77 -15 12 0 39 -9 58 -20
20 -11 64 -25 98 -30 98 -16 139 -26 192 -50 63 -27 177 -39 361 -37 133 2
143 3 180 28 110 74 181 111 251 135 103 35 182 28 292 -23 42 -19 108 -45
146 -58 63 -20 80 -21 170 -14 55 5 123 13 150 18 74 14 154 13 218 -4 65 -17
180 -87 198 -122 36 -68 240 -169 362 -179 72 -6 247 19 247 36 0 4 12 12 27
19 84 38 225 187 242 256 7 28 23 55 42 73 17 15 38 41 47 57 52 102 180 224
282 271 30 14 62 30 72 34 32 17 195 48 313 60 166 16 209 27 293 71 41 22 79
39 86 39 21 0 105 79 122 115 9 19 25 37 35 40 11 4 32 25 47 48 14 23 41 59
59 80 18 20 33 43 33 51 0 8 15 24 33 35 19 11 46 43 61 71 15 27 33 53 40 57
7 5 41 46 76 93 35 47 75 101 90 120 15 19 32 46 39 58 7 13 27 30 45 37 17 7
56 30 85 49 78 52 167 92 241 106 36 6 76 18 90 25 14 7 46 15 71 18 25 3 66
13 90 20 24 8 89 27 144 42 55 15 116 37 135 49 19 12 56 33 82 45 30 14 58
38 76 64 16 23 44 64 62 91 43 63 64 157 55 252 -7 89 -19 132 -43 155 -11 9
-29 55 -42 101 -12 45 -26 88 -30 93 -4 6 -15 30 -24 55 -8 25 -34 97 -57 160
-26 72 -45 145 -51 195 -5 44 -15 98 -22 121 -9 27 -11 46 -4 58 14 25 -1 97
-25 124 -13 14 -32 22 -54 22 -44 0 -82 20 -110 58 -12 16 -34 32 -50 35 -15
3 -53 12 -83 21 -77 22 -296 22 -328 0 -34 -23 -64 -91 -70 -157 -4 -52 -10
-64 -41 -94 -29 -27 -42 -33 -68 -29 -51 7 -97 -11 -129 -51 -16 -20 -59 -66
-95 -103 -37 -36 -69 -76 -73 -88 -16 -50 -34 -2 -34 92 0 15 -4 32 -9 37 -14
14 -169 32 -241 27 -56 -4 -74 -1 -111 19 -24 13 -50 28 -57 34 -22 18 -74
140 -74 173 0 70 -62 77 -129 16 -24 -22 -52 -40 -62 -40 -10 0 -22 -6 -26
-14 -11 -18 -37 -31 -114 -56 -35 -12 -72 -25 -81 -31 -30 -16 -67 -10 -106
16 -20 14 -51 25 -68 25 l-30 0 42 45 c40 44 43 45 102 45 59 0 60 0 77 38 10
20 27 48 40 62 12 14 28 47 35 75 10 34 26 62 55 90 23 22 48 51 55 65 32 60
168 190 198 190 6 0 21 15 33 33 28 41 49 61 71 69 9 4 32 31 51 61 19 30 57
77 84 104 57 58 73 91 72 152 -1 36 -7 50 -32 73 -17 15 -41 28 -53 28 -12 0
-47 10 -78 21 -76 29 -99 69 -150 254 -12 44 -38 112 -58 151 -23 43 -41 98
-48 137 -6 37 -15 78 -20 92 -6 15 -10 40 -10 56 0 45 -26 89 -53 88 -12 0
-29 -4 -37 -9z"/>
<path d="M11560 10329 c-88 -8 -244 -13 -266 -8 -48 9 -56 -8 -59 -136 -4
-138 39 -303 129 -500 13 -27 33 -93 46 -145 12 -52 27 -112 32 -132 15 -52 3
-300 -21 -418 -24 -124 -72 -235 -129 -305 -26 -32 -150 -107 -204 -123 -18
-6 -121 -13 -228 -17 -261 -9 -339 -26 -463 -101 -50 -31 -104 -67 -120 -80
-16 -13 -32 -24 -37 -24 -13 0 -105 -99 -165 -179 -106 -140 -151 -285 -143
-461 5 -100 4 -96 104 -305 18 -38 40 -95 48 -125 8 -30 27 -86 42 -125 14
-38 30 -83 34 -100 5 -16 15 -55 23 -85 24 -87 46 -264 51 -410 6 -163 16
-202 59 -232 106 -75 304 35 407 227 117 217 152 284 171 325 11 24 24 47 28
50 5 3 16 21 26 40 10 19 34 60 55 90 20 30 61 93 91 140 29 47 90 121 134
165 67 66 90 83 137 98 76 24 178 9 219 -33 54 -54 47 -148 -21 -275 -64 -121
-96 -164 -231 -319 -20 -22 -42 -52 -49 -66 -7 -14 -24 -38 -37 -55 -37 -46
-103 -152 -145 -235 -32 -62 -38 -82 -32 -112 5 -33 10 -38 42 -44 62 -12 173
22 229 70 26 23 66 53 88 68 37 24 61 48 178 183 24 28 56 77 71 110 15 33 34
67 41 75 7 8 40 68 73 133 34 65 77 133 97 152 19 19 35 38 35 42 0 5 12 22
28 38 15 17 40 48 56 69 17 22 44 56 62 75 141 156 193 223 284 366 75 117 92
145 129 211 5 11 25 55 44 100 36 85 129 235 167 269 12 11 29 33 37 49 8 16
35 50 59 76 24 25 52 66 63 90 23 51 18 66 -45 141 -34 41 -36 47 -31 100 7
79 35 126 118 200 166 147 184 182 184 363 0 86 -3 110 -15 117 -8 5 -49 25
-90 45 -134 66 -146 73 -160 90 -8 9 -46 38 -85 64 -92 62 -153 123 -335 333
-18 20 -69 63 -114 94 -44 32 -103 75 -131 97 -27 21 -68 47 -90 58 -22 10
-58 31 -80 48 -22 16 -50 36 -61 45 -31 23 -152 55 -199 53 -22 0 -83 -5 -135
-9z"/>
<path d="M9255 9000 c-3 -5 -23 -10 -45 -10 -23 0 -60 -12 -95 -30 -31 -16
-63 -30 -70 -30 -55 0 -215 -141 -340 -299 -41 -53 -91 -115 -160 -201 -22
-27 -58 -73 -80 -101 -67 -86 -247 -253 -305 -285 -19 -10 -50 -31 -68 -46
-18 -16 -39 -28 -47 -28 -8 0 -31 -11 -52 -26 -20 -14 -64 -38 -98 -54 -44
-21 -84 -54 -150 -122 -50 -51 -96 -103 -103 -115 -7 -14 -12 -64 -12 -132 0
-63 -4 -112 -10 -116 -5 -3 -10 -17 -10 -30 0 -13 -4 -27 -10 -30 -5 -3 -10
-19 -10 -34 0 -16 -8 -39 -17 -52 -10 -13 -27 -40 -37 -59 -28 -53 -74 -97
-146 -143 -36 -23 -74 -48 -85 -55 -11 -6 -31 -17 -45 -23 -14 -6 -33 -15 -42
-20 -10 -5 -27 -9 -37 -9 -11 0 -23 -4 -26 -10 -3 -5 -21 -10 -40 -10 -19 0
-37 -4 -40 -10 -4 -6 -73 -10 -175 -10 -102 0 -171 4 -175 10 -3 6 -44 10 -90
10 -46 0 -87 5 -90 10 -3 6 -44 10 -90 10 -46 0 -87 5 -90 10 -3 6 -26 10 -50
10 -24 0 -47 5 -50 10 -3 6 -26 10 -50 10 -24 0 -47 5 -50 10 -3 6 -17 10 -30
10 -13 0 -27 5 -30 10 -3 6 -21 10 -40 10 -19 0 -37 5 -40 10 -3 6 -21 10 -40
10 -19 0 -37 5 -40 10 -3 6 -15 10 -25 10 -11 0 -35 9 -55 20 -20 11 -44 20
-55 20 -10 0 -22 5 -25 10 -3 6 -15 10 -25 10 -11 0 -35 9 -55 20 -20 11 -49
20 -65 20 -16 0 -32 5 -35 10 -3 6 -26 10 -50 10 -24 0 -47 5 -50 10 -4 6
-168 10 -460 10 -292 0 -456 4 -460 10 -3 6 -21 10 -40 10 -19 0 -37 5 -40 10
-3 6 -19 10 -35 10 -16 0 -45 9 -65 20 -20 11 -44 20 -55 20 -10 0 -22 5 -25
10 -3 6 -21 10 -40 10 -19 0 -37 5 -40 10 -3 6 -17 10 -30 10 -13 0 -27 5 -30
10 -3 6 -17 10 -30 10 -13 0 -27 5 -30 10 -3 6 -15 10 -26 10 -10 0 -27 4 -37
9 -37 18 -90 31 -133 31 -39 0 -50 -5 -82 -38 -20 -21 -37 -47 -37 -58 0 -61
100 -164 159 -164 11 0 23 -4 26 -10 3 -5 15 -10 25 -10 11 0 35 -9 55 -20 20
-11 53 -20 75 -20 21 0 42 -4 45 -10 3 -5 14 -10 24 -10 10 0 53 -18 96 -40
43 -22 84 -40 91 -40 7 0 29 -9 49 -20 20 -11 42 -20 49 -20 8 0 40 -13 71
-30 31 -16 63 -30 70 -30 18 0 133 -61 192 -103 27 -18 65 -41 86 -52 24 -13
40 -29 44 -45 3 -14 16 -36 28 -50 13 -14 37 -51 53 -83 16 -31 45 -75 63 -96
19 -21 42 -51 52 -65 17 -25 67 -62 126 -93 28 -15 127 -17 136 -3 3 6 30 10
60 10 30 0 57 5 60 10 3 6 17 10 30 10 13 0 27 5 30 10 3 6 17 10 30 10 13 0
27 5 30 10 4 6 80 10 195 10 115 0 191 -4 195 -10 3 -5 13 -10 22 -10 32 0
123 -71 158 -124 19 -29 35 -59 35 -65 0 -7 9 -24 20 -38 11 -14 20 -34 20
-44 0 -10 5 -21 10 -24 6 -3 10 -16 11 -28 0 -12 9 -35 20 -52 10 -16 24 -41
30 -55 43 -94 56 -119 81 -148 15 -18 28 -40 28 -48 0 -9 9 -27 20 -41 11 -14
20 -32 20 -39 0 -7 14 -33 30 -57 17 -25 30 -53 30 -64 0 -10 5 -24 11 -30 15
-15 14 -372 -1 -387 -5 -5 -10 -34 -10 -62 0 -29 -4 -56 -10 -59 -5 -3 -10
-30 -10 -60 0 -30 -4 -57 -10 -60 -5 -3 -10 -26 -10 -50 0 -24 -4 -47 -10 -50
-5 -3 -10 -39 -10 -80 0 -41 -4 -77 -10 -80 -15 -9 -13 -210 2 -238 7 -12 29
-39 48 -59 34 -38 35 -38 112 -38 67 0 84 -4 119 -25 27 -18 41 -35 46 -56 3
-16 10 -32 14 -35 5 -3 9 -20 9 -39 0 -19 5 -37 10 -40 6 -3 10 -43 10 -88 0
-96 36 -225 72 -264 80 -86 152 -67 294 79 50 51 102 111 116 133 14 22 33 47
42 54 23 19 76 99 76 115 0 7 18 48 40 91 22 43 40 83 40 90 0 12 21 60 55
125 7 14 53 104 101 200 82 162 94 181 173 264 88 90 204 176 240 176 11 0 23
5 26 10 3 6 21 10 40 10 19 0 37 5 40 10 3 6 21 10 40 10 19 0 37 5 40 10 3 6
21 10 40 10 19 0 37 5 40 10 3 6 26 10 50 10 24 0 47 5 50 10 3 6 35 10 70 10
35 0 67 5 70 10 4 6 67 10 155 10 88 0 151 -4 155 -10 3 -5 26 -10 50 -10 24
0 47 -4 50 -10 3 -5 17 -10 30 -10 13 0 27 -4 30 -10 3 -5 17 -10 30 -10 13 0
27 -4 30 -10 3 -5 15 -10 25 -10 23 0 105 -44 140 -75 14 -12 50 -38 80 -57
30 -20 64 -45 74 -57 11 -12 39 -31 62 -43 23 -11 62 -40 85 -64 24 -24 53
-44 64 -44 12 0 26 -5 33 -12 9 -9 15 -9 24 0 7 7 21 12 32 13 28 1 77 30 90
54 6 11 23 39 39 63 15 24 27 52 27 62 0 10 5 22 10 25 6 3 10 30 10 60 0 30
5 57 10 60 6 3 10 46 10 95 0 49 -4 92 -10 95 -5 3 -10 17 -10 30 0 13 -4 27
-10 30 -5 3 -10 23 -10 44 0 25 -14 65 -40 116 -22 43 -40 86 -40 96 0 10 -4
21 -10 24 -6 4 -10 67 -10 155 0 88 4 151 10 155 6 3 10 19 10 35 0 16 9 45
20 65 11 20 20 49 20 65 0 16 5 32 10 35 6 3 10 46 10 95 0 49 -4 92 -10 95
-5 3 -10 21 -10 39 0 17 -5 37 -11 43 -8 8 -11 96 -10 281 1 175 -2 273 -9
277 -5 3 -10 17 -10 30 0 13 -4 27 -10 30 -5 3 -10 14 -10 24 0 9 -11 40 -25
68 -24 46 -75 100 -212 220 -57 49 -103 133 -103 185 0 20 -4 40 -10 43 -6 4
-10 53 -10 115 0 62 4 111 10 115 6 3 10 30 10 60 0 30 5 57 10 60 6 3 10 23
10 45 0 23 12 60 30 95 17 31 30 64 30 72 0 8 21 46 47 86 26 40 69 115 96
167 26 52 55 102 63 111 7 8 14 25 14 37 0 11 5 24 10 27 6 3 10 30 10 60 0
30 5 57 10 60 17 10 11 72 -10 110 -11 20 -20 44 -20 54 0 28 -145 151 -178
151 -12 0 -24 5 -27 10 -3 6 -30 10 -60 10 -30 0 -57 5 -60 10 -4 6 -53 10
-115 10 -62 0 -111 -4 -115 -10z"/>
<path d="M13440 8983 c-69 -48 -124 -119 -177 -232 -107 -226 -103 -216 -103
-295 0 -62 -4 -79 -25 -110 -14 -20 -25 -39 -25 -42 0 -2 -12 -23 -27 -47 -36
-56 -52 -82 -88 -146 -16 -29 -51 -82 -77 -117 -27 -36 -48 -69 -48 -75 0 -27
-48 -105 -92 -150 -27 -28 -63 -73 -79 -100 -16 -27 -44 -65 -63 -83 -19 -19
-47 -52 -62 -72 -16 -21 -128 -138 -250 -259 -121 -122 -233 -239 -250 -260
-16 -22 -62 -73 -102 -114 -40 -40 -79 -89 -88 -107 -9 -18 -28 -45 -43 -61
-43 -45 -61 -76 -61 -103 0 -14 -14 -45 -30 -70 -18 -27 -30 -58 -30 -78 0
-18 -9 -50 -20 -72 -14 -28 -20 -59 -20 -110 0 -51 -6 -82 -20 -110 -12 -24
-20 -59 -20 -92 0 -30 -7 -66 -17 -83 -10 -19 -18 -64 -21 -120 -3 -60 -11
-102 -23 -127 -11 -21 -19 -43 -19 -50 0 -6 -21 -54 -47 -107 -40 -79 -62
-109 -140 -187 -68 -69 -103 -96 -131 -104 -22 -5 -59 -23 -83 -40 -24 -16
-60 -34 -79 -40 -19 -5 -48 -21 -65 -36 -16 -14 -47 -35 -67 -45 -47 -24 -122
-98 -144 -142 -20 -40 -89 -131 -129 -172 -48 -49 -77 -65 -115 -65 -42 0 -70
-17 -127 -80 -31 -33 -44 -56 -49 -89 -4 -24 -10 -38 -14 -31 -4 6 -10 -11
-13 -39 -3 -27 -13 -64 -22 -81 -22 -42 -131 -149 -158 -155 -12 -2 -76 -6
-142 -8 -88 -3 -128 -8 -150 -20 -23 -13 -56 -17 -145 -17 -128 0 -134 -2
-203 -73 -21 -22 -63 -74 -95 -116 -67 -90 -131 -154 -177 -175 -24 -12 -64
-16 -147 -16 -119 0 -133 4 -183 55 -53 52 -55 61 -55 218 l0 149 -29 29 c-22
22 -39 29 -68 29 -62 0 -164 -25 -220 -55 -52 -27 -53 -27 -195 -20 -281 13
-308 12 -363 -16 -27 -15 -62 -29 -76 -32 -15 -4 -44 -24 -65 -44 -22 -21 -57
-51 -79 -67 -50 -39 -293 -281 -331 -332 -38 -50 -111 -124 -117 -118 -2 3
-16 -9 -31 -26 -22 -27 -26 -41 -26 -97 0 -116 40 -153 169 -153 62 0 91 5
121 20 22 11 56 20 77 20 46 0 126 21 170 43 25 14 61 17 173 17 121 0 146 -3
180 -20 34 -17 58 -20 182 -20 139 1 145 2 198 30 47 26 66 30 128 30 97 0
157 -29 205 -100 22 -32 22 -108 0 -140 -10 -14 -104 -111 -211 -217 -136
-135 -191 -196 -185 -205 4 -7 10 -62 13 -123 l5 -110 65 -3 c76 -4 195 14
229 36 29 17 70 63 71 77 0 6 9 17 20 25 11 8 20 19 20 25 0 20 44 53 88 67
23 7 54 23 69 35 14 13 32 23 40 23 7 0 13 5 13 10 0 6 7 10 15 10 8 0 15 4
15 9 0 15 57 65 93 82 91 44 149 69 160 69 7 0 28 11 47 25 47 35 91 45 139
33 49 -13 79 -6 111 24 13 13 51 42 84 66 50 35 67 42 92 37 59 -10 98 15 117
76 6 17 13 19 146 38 64 9 78 8 110 -7 31 -15 69 -17 282 -17 228 0 249 1 268
19 11 10 18 23 15 28 -25 40 67 148 143 167 26 7 52 16 58 20 5 4 33 16 60 26
28 10 53 23 57 29 4 6 8 49 8 96 1 63 6 94 20 120 10 19 28 54 40 78 11 23 25
42 30 42 6 0 10 7 10 15 0 15 12 29 96 106 53 49 91 97 112 143 50 111 80 162
107 181 88 59 79 39 87 203 9 188 19 249 53 303 30 49 101 119 120 119 29 0
40 34 46 149 4 73 12 133 23 161 10 25 25 65 33 90 8 25 19 52 24 60 20 33 48
97 55 125 4 17 9 35 13 40 3 6 6 144 6 307 0 224 3 300 13 309 6 7 12 29 12
49 0 20 6 42 13 49 10 10 8 16 -10 31 -24 19 -31 64 -13 75 6 3 10 19 10 34 0
15 4 31 9 37 6 5 11 32 13 59 3 42 6 50 24 53 21 3 40 31 46 67 4 23 44 33 61
16 6 -6 29 -11 52 -11 37 0 47 6 108 68 37 37 67 72 67 78 0 5 16 25 35 44 19
19 35 38 35 43 0 5 14 26 30 47 17 21 30 47 30 57 0 11 9 28 19 37 18 17 71
114 71 131 0 4 18 27 40 51 21 23 42 55 46 70 9 33 45 68 99 93 22 11 51 31
64 45 15 16 35 26 52 26 15 0 29 7 33 15 3 8 15 15 26 15 11 0 20 6 20 13 0 7
27 42 61 78 33 35 66 75 72 89 7 14 27 31 45 39 17 8 32 20 32 26 0 21 42 66
55 61 15 -5 45 34 45 59 0 8 8 15 18 15 23 0 43 22 65 71 9 20 23 42 32 49 8
7 15 24 16 39 0 14 9 40 19 56 39 62 50 89 50 122 0 22 6 36 16 40 11 4 14 14
10 34 -3 16 -1 29 6 31 7 3 8 9 3 19 -16 25 -11 83 8 99 27 22 30 223 5 263
-12 17 -18 46 -18 82 0 62 -26 122 -62 142 -30 16 -29 16 -58 -4z"/>
<path d="M7738 3233 c-25 -6 -23 -48 6 -110 20 -43 22 -54 11 -63 -10 -8 -24
-6 -57 11 -24 12 -51 28 -60 37 -16 14 -18 13 -18 -4 0 -10 11 -42 24 -71 20
-43 22 -54 11 -63 -10 -8 -26 -4 -65 17 -149 81 -133 77 -293 81 -116 3 -158
1 -190 -11 -23 -8 -54 -18 -68 -21 -16 -3 -29 -15 -33 -28 -9 -37 -7 -118 5
-140 17 -32 71 -48 162 -48 l84 0 47 -41 c25 -22 46 -46 46 -52 0 -14 -71 -47
-100 -47 -21 0 -27 -15 -10 -25 20 -13 9 -31 -30 -48 -22 -9 -46 -17 -54 -17
-59 0 -63 -65 -10 -177 19 -41 39 -98 44 -125 12 -62 15 -67 56 -84 43 -18
204 -44 275 -44 74 0 110 -14 132 -51 28 -50 22 -65 -33 -91 -38 -17 -50 -28
-50 -45 0 -15 -12 -27 -46 -43 -43 -21 -54 -22 -174 -16 l-128 7 -32 -44 c-17
-24 -51 -58 -76 -75 -24 -18 -44 -36 -44 -41 0 -5 -22 -25 -50 -45 -57 -41
-60 -54 -33 -150 23 -83 68 -126 153 -149 131 -35 182 -39 549 -43 l373 -4 30
25 c17 14 44 33 62 42 72 37 155 175 156 258 0 64 -30 151 -81 236 -52 86 -63
127 -49 178 9 36 83 139 113 158 24 16 70 86 82 127 7 22 20 58 29 79 9 21 12
37 6 37 -6 0 -10 37 -10 93 0 101 -17 179 -47 223 -11 16 -40 60 -64 98 -55
88 -182 216 -241 245 -98 47 -253 79 -310 64z"/>
</g>
</svg>
